opsz8_wdth50.ufo
<glyph name="zero" format="2">
	<unicode hex="0030"/>
	<advance width="1180"/>
	<outline>
		<contour>
			<point x="73.998046875" y="747.0126953125" type="qcurve" smooth="yes"/>
			<point x="75.998046875" y="1168.4671630859"/>
			<point x="341.4900512695" y="1521.9984130859"/>
			<point x="591.0850830078" y="1521.9984130859" type="qcurve" smooth="yes"/>
			<point x="843.1076660156" y="1521.9984130859"/>
			<point x="1105.6080932617" y="1165.4754638672"/>
			<point x="1105.6080932617" y="755.0230712891" type="qcurve" smooth="yes"/>
			<point x="1105.6080932617" y="344.59765625"/>
			<point x="844.0422363281" y="-19"/>
			<point x="593.6491088867" y="-19" type="qcurve" smooth="yes"/>
			<point x="343.0625" y="-19"/>
			<point x="71.998046875" y="325.5540771484"/>
		</contour>
		<contour>
			<point x="260.517578125" y="774.0458984375" type="qcurve" smooth="yes"/>
			<point x="259" y="481"/>
			<point x="431.5158081055" y="94.1508178711"/>
			<point x="590.0850830078" y="94.1508178711" type="qcurve" smooth="yes"/>
			<point x="748.6543579102" y="94.1508178711"/>
			<point x="917" y="447"/>
			<point x="919.0885620117" y="750.0126953125" type="qcurve" smooth="yes"/>
			<point x="917" y="1027"/>
			<point x="747.2183837891" y="1401.2759399414"/>
			<point x="586.6491088867" y="1401.2759399414" type="qcurve" smooth="yes"/>
			<point x="426.0798339844" y="1401.2759399414"/>
			<point x="259" y="1060"/>
		</contour>
	</outline>
</glyph>
<glyph name="one" format="2">
	<unicode hex="0031"/>
	<advance width="835"/>
	<outline>
		<contour>
			<point x="114.7705078125" y="0" type="line"/>
			<point x="114.7705078125" y="93.00390625" type="line"/>
			<point x="372.7674560547" y="128.00390625" type="line"/>
			<point x="372.7674560547" y="754.9753417969" type="line"/>
			<point x="370.7674560547" y="1350.8083496094" type="line"/>
			<point x="100.724609375" y="1378.8083496094" type="line"/>
			<point x="100.724609375" y="1492.0316162109" type="line"/>
			<point x="521.6981201172" y="1515.0316162109" type="line"/>
			<point x="553.6981201172" y="1480.0316162109" type="line"/>
			<point x="547.6981201172" y="754.9753417969" type="line"/>
			<point x="547.6981201172" y="128.00390625" type="line"/>
			<point x="795.6950683594" y="93.00390625" type="line"/>
			<point x="795.6950683594" y="0" type="line"/>
		</contour>
	</outline>
</glyph>
<glyph name="two" format="2">
	<unicode hex="0032"/>
	<advance width="1000"/>
	<outline>
		<contour>
			<point x="51.21484375" y="0" type="line"/>
			<point x="51.21484375" y="95.83984375" type="line"/>
			<point x="65.7055664062" y="217.078918457"/>
			<point x="214.4922485352" y="495.4250488281"/>
			<point x="392.241394043" y="644.9542236328" type="qcurve" smooth="yes"/>
			<point x="572.2321166992" y="794.4981689453"/>
			<point x="718.2015380859" y="1029.2376098633"/>
			<point x="718.2015380859" y="1152.3655395508" type="qcurve" smooth="yes"/>
			<point x="718.2015380859" y="1264.4201660156"/>
			<point x="571.5780639648" y="1369.6825561523"/>
			<point x="473.3767700195" y="1369.6825561523" type="qcurve" smooth="yes"/>
			<point x="372.7772216797" y="1369.6825561523"/>
			<point x="212.3399047852" y="1281.3494262695"/>
			<point x="152.21484375" y="1210.1069335938" type="qcurve"/>
			<point x="47.21484375" y="1308.2489013672" type="line"/>
			<point x="111.9522705078" y="1390.3389892578"/>
			<point x="325.5782470703" y="1522.0336914062"/>
			<point x="508.2982177734" y="1522.0336914062" type="qcurve" smooth="yes"/>
			<point x="677.1270141602" y="1522.0336914062"/>
			<point x="909.2445068359" y="1335.0934448242"/>
			<point x="909.2445068359" y="1133.762512207" type="qcurve" smooth="yes"/>
			<point x="909.2445068359" y="922.4032592773"/>
			<point x="673.3101196289" y="660.0760498047"/>
			<point x="526.0303955078" y="533.9001464844" type="qcurve" smooth="yes"/>
			<point x="349.8453979492" y="393.9683227539"/>
			<point x="234.2060546875" y="222.9300537109"/>
			<point x="216.2886352539" y="176.7731323242" type="qcurve"/>
			<point x="221.2886352539" y="163.5107421875" type="line"/>
			<point x="915.2626342773" y="163.5107421875" type="line"/>
			<point x="915.2626342773" y="0" type="line"/>
		</contour>
	</outline>
</glyph>
<glyph name="three" format="2">
	<unicode hex="0033"/>
	<advance width="978"/>
	<outline>
		<contour>
			<point x="-2.623046875" y="156.0249023438" type="qcurve"/>
			<point x="125.0987548828" y="259.4249267578" type="line"/>
			<point x="189.7359619141" y="185.92578125"/>
			<point x="338.0602416992" y="95.294128418"/>
			<point x="458.0894775391" y="95.294128418" type="qcurve" smooth="yes"/>
			<point x="578.1572875977" y="95.294128418"/>
			<point x="740.4937744141" y="247.799987793"/>
			<point x="740.4937744141" y="413.9469604492" type="qcurve" smooth="yes"/>
			<point x="740.4937744141" y="591.3740844727"/>
			<point x="500.751953125" y="726.8416137695"/>
			<point x="283.8190307617" y="726.8416137695" type="qcurve" smooth="yes"/>
			<point x="220.6151733398" y="726.8416137695" type="line"/>
			<point x="193.642578125" y="863.7064208984" type="line"/>
			<point x="304.069519043" y="869.591003418" type="line" smooth="yes"/>
			<point x="487.3405761719" y="878.9512329102"/>
			<point x="699.2324829102" y="1026.0952148438"/>
			<point x="699.2324829102" y="1164.403503418" type="qcurve" smooth="yes"/>
			<point x="699.2324829102" y="1291.7288208008"/>
			<point x="567.0292358398" y="1401.603515625"/>
			<point x="475.1389160156" y="1401.603515625" type="qcurve" smooth="yes"/>
			<point x="359.3597412109" y="1401.603515625"/>
			<point x="200.1091918945" y="1279.0695800781"/>
			<point x="142.5594482422" y="1215.3126220703" type="qcurve"/>
			<point x="25.6105957031" y="1330.6954345703" type="line"/>
			<point x="93.417175293" y="1400.9794311523"/>
			<point x="312.6414794922" y="1522.0295410156"/>
			<point x="478.0317993164" y="1522.0295410156" type="qcurve" smooth="yes"/>
			<point x="660.8639526367" y="1522.0295410156"/>
			<point x="884.8643188477" y="1354.7846679688"/>
			<point x="884.8643188477" y="1186.5895996094" type="qcurve" smooth="yes"/>
			<point x="884.8643188477" y="1027.3841552734"/>
			<point x="710.4262084961" y="850.4685058594"/>
			<point x="555.5437011719" y="821.0832519531" type="qcurve"/>
			<point x="555.5437011719" y="814.0832519531" type="line"/>
			<point x="699.4262084961" y="790.8516845703"/>
			<point x="925.8418579102" y="607.7678222656"/>
			<point x="925.8418579102" y="403.5374755859" type="qcurve" smooth="yes"/>
			<point x="925.8418579102" y="209.2822265625"/>
			<point x="666.5795898438" y="-19"/>
			<point x="444.9315185547" y="-19" type="qcurve" smooth="yes"/>
			<point x="298.5344238281" y="-19"/>
			<point x="54.0159301758" y="80.0005493164"/>
		</contour>
	</outline>
</glyph>
<glyph name="four" format="2">
	<unicode hex="0034"/>
	<advance width="1132"/>
	<outline>
		<contour>
			<point x="4.890625" y="566.6225585938" type="line"/>
			<point x="769.0346069336" y="1531.0793457031" type="line"/>
			<point x="883.0433959961" y="1513.0793457031" type="line"/>
			<point x="908.9652709961" y="1483.0793457031" type="line"/>
			<point x="895.9652709961" y="499.6848144531" type="line"/>
			<point x="903.9652709961" y="128.00390625" type="line"/>
			<point x="1076.1486206055" y="93.00390625" type="line"/>
			<point x="1076.1486206055" y="0" type="line"/>
			<point x="532.9133911133" y="0" type="line"/>
			<point x="532.9133911133" y="93.00390625" type="line"/>
			<point x="729.0346069336" y="128.00390625" type="line"/>
			<point x="735.0346069336" y="497.6848144531" type="line"/>
			<point x="735.0346069336" y="1290.4822387695" type="line"/>
			<point x="148.8727416992" y="558.1729736328" type="line"/>
			<point x="152.8727416992" y="547.1729736328" type="line"/>
			<point x="1139.7734375" y="541.7888183594" type="line"/>
			<point x="1139.7734375" y="439.5809936523" type="line"/>
			<point x="20.890625" y="441.5809936523" type="line"/>
		</contour>
	</outline>
</glyph>
<glyph name="five" format="2">
	<unicode hex="0035"/>
	<advance width="1018"/>
	<outline>
		<contour>
			<point x="-10.595703125" y="105" type="qcurve"/>
			<point x="72.2244262695" y="228.2680053711" type="line"/>
			<point x="133.2022094727" y="189.2879638672"/>
			<point x="316.7071533203" y="102.6377563477"/>
			<point x="459.1881103516" y="102.6377563477" type="qcurve" smooth="yes"/>
			<point x="594.3965454102" y="102.6377563477"/>
			<point x="763.5145263672" y="292.283203125"/>
			<point x="763.5145263672" y="472.908996582" type="qcurve" smooth="yes"/>
			<point x="763.5145263672" y="651.2142333984"/>
			<point x="534.3352050781" y="814.8182983398"/>
			<point x="308.1636352539" y="813.8141479492" type="qcurve" smooth="yes"/>
			<point x="170.7854614258" y="813.8141479492" type="line"/>
			<point x="96.7854614258" y="884.2368164062" type="line"/>
			<point x="132.7854614258" y="1469.025390625" type="line"/>
			<point x="153.7854614258" y="1502.025390625" type="line"/>
			<point x="846.6755981445" y="1502.025390625" type="line"/>
			<point x="839.1895751953" y="1327.8603515625" type="line"/>
			<point x="235.1688842773" y="1327.8603515625" type="line"/>
			<point x="227.8545532227" y="1316.8603515625" type="line"/>
			<point x="200.5296020508" y="924.2990722656" type="line"/>
			<point x="403.0678100586" y="943.2492675781" type="line"/>
			<point x="621.8308105469" y="949.3881225586"/>
			<point x="946.2303466797" y="751.9251098633"/>
			<point x="946.2303466797" y="494.6744384766" type="qcurve" smooth="yes"/>
			<point x="946.2303466797" y="248.3465576172"/>
			<point x="677.8421630859" y="-20"/>
			<point x="478.9169921875" y="-20" type="qcurve" smooth="yes"/>
			<point x="302.184753418" y="-20"/>
			<point x="45.2043457031" y="67.7847290039"/>
		</contour>
	</outline>
</glyph>
<glyph name="six" format="2">
	<unicode hex="0036"/>
	<advance width="1118"/>
	<outline>
		<contour>
			<point x="73.998046875" y="618.8446044922" type="qcurve" smooth="yes"/>
			<point x="73.998046875" y="974.1228637695"/>
			<point x="497.0826416016" y="1496.6293945312"/>
			<point x="916.5933837891" y="1564.1125488281" type="qcurve"/>
			<point x="935.942199707" y="1419.5913085938" type="line"/>
			<point x="581.6241455078" y="1337.7595214844"/>
			<point x="265.38671875" y="957.6892089844"/>
			<point x="265.38671875" y="598.8010253906" type="qcurve" smooth="yes"/>
			<point x="265.38671875" y="408.3758544922"/>
			<point x="448.7152709961" y="104.9910888672"/>
			<point x="597.9326171875" y="104.9910888672" type="qcurve" smooth="yes"/>
			<point x="753.4739379883" y="104.9910888672"/>
			<point x="897.5932617188" y="342.7656860352"/>
			<point x="897.7504272461" y="464.3703613281" type="qcurve" smooth="yes"/>
			<point x="897.9075927734" y="600.3244628906"/>
			<point x="752.2161254883" y="801.0877685547"/>
			<point x="597.6634521484" y="801.0877685547" type="qcurve" smooth="yes"/>
			<point x="504.7803955078" y="801.0877685547"/>
			<point x="396.3696289062" y="757.6055297852"/>
			<point x="351.630859375" y="728.4046630859" type="qcurve"/>
			<point x="317.630859375" y="788.2858886719" type="line"/>
			<point x="340.7759399414" y="819.0910644531"/>
			<point x="528.6666870117" y="931.4346923828"/>
			<point x="640.4620361328" y="931.4346923828" type="qcurve" smooth="yes"/>
			<point x="829.2737426758" y="931.4346923828"/>
			<point x="1075.9896850586" y="708.8695068359"/>
			<point x="1075.9896850586" y="466.7124633789" type="qcurve" smooth="yes"/>
			<point x="1075.9896850586" y="249.3693847656"/>
			<point x="817.5196533203" y="-19"/>
			<point x="596.7551269531" y="-19" type="qcurve" smooth="yes"/>
			<point x="352.8201293945" y="-19"/>
			<point x="73.998046875" y="334.8045654297"/>
		</contour>
	</outline>
</glyph>
<glyph name="seven" format="2">
	<unicode hex="0037"/>
	<advance width="999"/>
	<outline>
		<contour>
			<point x="20.478515625" y="1117.0341796875" type="line"/>
			<point x="43.1787109375" y="1502.025390625" type="line"/>
			<point x="1004.1340942383" y="1502.025390625" type="line"/>
			<point x="1004.1340942383" y="1402.111328125" type="line"/>
			<point x="648.8463745117" y="701.2297363281" type="line"/>
			<point x="371.133605957" y="0" type="line"/>
			<point x="175.602355957" y="0" type="line"/>
			<point x="175.602355957" y="73" type="line"/>
			<point x="536.9108276367" y="768.9255371094" type="line"/>
			<point x="882.3149414062" y="1334.1895751953" type="line"/>
			<point x="868.2512207031" y="1351.0380859375" type="line"/>
			<point x="178.9416503906" y="1351.0380859375" type="line"/>
			<point x="142.4748535156" y="1117.0341796875" type="line"/>
		</contour>
	</outline>
</glyph>
<glyph name="eight" format="2">
	<unicode hex="0038"/>
	<advance width="1047"/>
	<outline>
		<contour>
			<point x="15.404296875" y="353.5107421875" type="qcurve" smooth="yes"/>
			<point x="15.404296875" y="546.0171508789"/>
			<point x="246.3106079102" y="782.7879638672"/>
			<point x="410.9908447266" y="851.5871582031" type="qcurve"/>
			<point x="499.9436035156" y="783.7128295898" type="line"/>
			<point x="349.6368408203" y="707.9881591797"/>
			<point x="197.0581665039" y="489.8172607422"/>
			<point x="197.0581665039" y="366.1782226562" type="qcurve" smooth="yes"/>
			<point x="197.0581665039" y="234.7250366211"/>
			<point x="364.2732543945" y="103.7734375"/>
			<point x="525.8921508789" y="103.7734375" type="qcurve" smooth="yes"/>
			<point x="670.2017211914" y="103.7734375"/>
			<point x="856.602355957" y="251.4995727539"/>
			<point x="856.602355957" y="379.0267333984" type="qcurve" smooth="yes"/>
			<point x="856.602355957" y="511.9381713867"/>
			<point x="709.0390625" y="645.4267578125"/>
			<point x="526.6714477539" y="704.4110107422" type="qcurve" smooth="yes"/>
			<point x="277.5100097656" y="818.3688354492"/>
			<point x="95.1048583984" y="1016.9417114258"/>
			<point x="95.1048583984" y="1172.9034423828" type="qcurve" smooth="yes"/>
			<point x="95.1048583984" y="1333.7614746094"/>
			<point x="347.3338623047" y="1521.0544433594"/>
			<point x="527.5848388672" y="1521.0544433594" type="qcurve" smooth="yes"/>
			<point x="708.2738037109" y="1521.0544433594"/>
			<point x="949.5266723633" y="1352.2083740234"/>
			<point x="949.5266723633" y="1209.2937011719" type="qcurve" smooth="yes"/>
			<point x="949.5266723633" y="1061.8226318359"/>
			<point x="767.2949829102" y="860.9276123047"/>
			<point x="619.1094970703" y="793.1185302734" type="qcurve"/>
			<point x="524.6259765625" y="851.7010498047" type="line"/>
			<point x="656.3451538086" y="925.5670166016"/>
			<point x="785.4549560547" y="1090.4868164062"/>
			<point x="785.4549560547" y="1198.8131713867" type="qcurve" smooth="yes"/>
			<point x="785.4549560547" y="1285.755065918"/>
			<point x="654.7106323242" y="1382.5547485352"/>
			<point x="534.7344970703" y="1382.5547485352" type="qcurve" smooth="yes"/>
			<point x="418.736328125" y="1382.5547485352"/>
			<point x="266.2048339844" y="1268.2055664062"/>
			<point x="266.2048339844" y="1190.682800293" type="qcurve" smooth="yes"/>
			<point x="266.2048339844" y="1089.0665283203"/>
			<point x="378.9103393555" y="964.319152832"/>
			<point x="604.5310058594" y="865.958190918" type="qcurve" smooth="yes"/>
			<point x="809.1120605469" y="789.3712768555"/>
			<point x="1032.7674560547" y="576.7727050781"/>
			<point x="1032.7674560547" y="392.2661132812" type="qcurve" smooth="yes"/>
			<point x="1032.7674560547" y="224.3361816406"/>
			<point x="764.0888671875" y="-18"/>
			<point x="533.6568603516" y="-18" type="qcurve" smooth="yes"/>
			<point x="283.4716186523" y="-18"/>
			<point x="15.404296875" y="192.0965576172"/>
		</contour>
	</outline>
</glyph>
<glyph name="nine" format="2">
	<unicode hex="0039"/>
	<advance width="1116"/>
	<outline>
		<contour>
			<point x="42.1337890625" y="1036.3779296875" type="qcurve" smooth="yes"/>
			<point x="42.1337890625" y="1254.6726074219"/>
			<point x="309.5876464844" y="1523.0316162109"/>
			<point x="521.869934082" y="1523.0316162109" type="qcurve" smooth="yes"/>
			<point x="753.2385864258" y="1523.0316162109"/>
			<point x="1042.4333496094" y="1188.4184570312"/>
			<point x="1042.4333496094" y="885.2139892578" type="qcurve" smooth="yes"/>
			<point x="1042.4333496094" y="540.6708984375"/>
			<point x="622.1853637695" y="6.3322753906"/>
			<point x="199.7071533203" y="-62.8201293945" type="qcurve"/>
			<point x="181.4863891602" y="80.6655883789" type="line"/>
			<point x="535.9432373047" y="160.1935424805"/>
			<point x="850.3249511719" y="547.1801147461"/>
			<point x="850.3249511719" y="905.2181396484" type="qcurve" smooth="yes"/>
			<point x="850.3249511719" y="1111.9114990234"/>
			<point x="668.9507446289" y="1407.0559692383"/>
			<point x="515.3244628906" y="1407.0559692383" type="qcurve" smooth="yes"/>
			<point x="360.7344360352" y="1407.0559692383"/>
			<point x="219.6533203125" y="1178.1940307617"/>
			<point x="219.6533203125" y="1038.0771484375" type="qcurve" smooth="yes"/>
			<point x="219.6533203125" y="884.1854248047"/>
			<point x="391.264465332" y="699.7990112305"/>
			<point x="547.6580200195" y="699.7990112305" type="qcurve" smooth="yes"/>
			<point x="613.1043701172" y="699.7990112305"/>
			<point x="721.9584350586" y="742.5579833984"/>
			<point x="765.2088623047" y="769.589050293" type="qcurve"/>
			<point x="799.2088623047" y="707.0701293945" type="line"/>
			<point x="776.551940918" y="680.7729492188"/>
			<point x="595.9644165039" y="565.5043945312"/>
			<point x="470.4088134766" y="565.5698242188" type="qcurve" smooth="yes"/>
			<point x="288.5704345703" y="565.7661132812"/>
			<point x="42.1337890625" y="794.0008544922"/>
		</contour>
	</outline>
</glyph>
<glyph name="D" format="2">
	<unicode hex="0044"/>
	<advance width="1588"/>
	<outline>
		<contour>
			<point x="82.0078125" y="0" type="line"/>
			<point x="82.0078125" y="99.00390625" type="line"/>
			<point x="290.005859375" y="134.00390625" type="line"/>
			<point x="292.005859375" y="754" type="line"/>
			<point x="290.005859375" y="1353.99609375" type="line"/>
			<point x="82.0078125" y="1387.99609375" type="line"/>
			<point x="82.0078125" y="1500" type="line"/>
			<point x="749.8013916016" y="1500" type="line" smooth="yes"/>
			<point x="1080.6496582031" y="1500"/>
			<point x="1503.6760864258" y="1119"/>
			<point x="1503.6760864258" y="778" type="qcurve" smooth="yes"/>
			<point x="1503.6760864258" y="410"/>
			<point x="1073.5006103516" y="0"/>
			<point x="710.3039550781" y="0" type="qcurve" smooth="yes"/>
		</contour>
		<contour>
			<point x="468.9295654297" y="129.9675292969" type="line"/>
			<point x="499.6718139648" y="123.9675292969"/>
			<point x="647.083984375" y="109.9675292969"/>
			<point x="718.167175293" y="109.9675292969" type="qcurve" smooth="yes"/>
			<point x="1000.8044433594" y="109.9675292969"/>
			<point x="1305.2573852539" y="494.6456298828"/>
			<point x="1309.2932739258" y="760" type="qcurve" smooth="yes"/>
			<point x="1311.8022460938" y="1000.926574707"/>
			<point x="965.6234130859" y="1376.060546875"/>
			<point x="684.3890380859" y="1376.060546875" type="qcurve" smooth="yes"/>
			<point x="637.0122070312" y="1376.060546875"/>
			<point x="502.7077026367" y="1363.060546875"/>
			<point x="468.9295654297" y="1358.060546875" type="qcurve"/>
			<point x="466.9295654297" y="754" type="line"/>
		</contour>
	</outline>
	<anchor name="bottom" x="686" y="0"/>
	<anchor name="center" x="438" y="754"/>
	<anchor name="top" x="686" y="1500"/>
	<anchor name="liga" x="1590" y="0"/>
</glyph>
<glyph name="F" format="2">
	<unicode hex="0046"/>
	<advance width="1129"/>
	<outline>
		<contour>
			<point x="82.0078125" y="0" type="line"/>
			<point x="82.0078125" y="100.00390625" type="line"/>
			<point x="290.005859375" y="135.00390625" type="line"/>
			<point x="292.005859375" y="754" type="line"/>
			<point x="290.005859375" y="1353.99609375" type="line"/>
			<point x="82.0078125" y="1387.99609375" type="line"/>
			<point x="82.0078125" y="1500" type="line"/>
			<point x="1087.1998291016" y="1500" type="line"/>
			<point x="1087.1998291016" y="1147.2569580078" type="line"/>
			<point x="988.1967773438" y="1147.2569580078" type="line"/>
			<point x="963.1967773438" y="1385.8985595703" type="line"/>
			<point x="500.9295654297" y="1385.8985595703" type="line"/>
			<point x="470.9295654297" y="1365.8985595703" type="line"/>
			<point x="468.9295654297" y="760" type="line"/>
			<point x="470.9295654297" y="134.00390625" type="line"/>
			<point x="695.6966552734" y="100.00390625" type="line"/>
			<point x="695.6966552734" y="0" type="line"/>
		</contour>
		<contour>
			<point x="406.7926025391" y="716.3542480469" type="line"/>
			<point x="406.7926025391" y="799.9200439453" type="line"/>
			<point x="786.8124389648" y="806.9200439453" type="line"/>
			<point x="811.8124389648" y="981.4995117188" type="line"/>
			<point x="906.4817504883" y="981.4995117188" type="line"/>
			<point x="906.4817504883" y="523.623046875" type="line"/>
			<point x="811.8124389648" y="523.623046875" type="line"/>
			<point x="786.8124389648" y="709.3542480469" type="line"/>
		</contour>
	</outline>
	<anchor name="bottom" x="578" y="0"/>
	<anchor name="top" x="622" y="1500"/>
</glyph>
<glyph name="H" format="2">
	<unicode hex="0048"/>
	<advance width="1739"/>
	<outline>
		<contour>
			<point x="82.0078125" y="0" type="line"/>
			<point x="82.0078125" y="100.00390625" type="line"/>
			<point x="290.005859375" y="135.00390625" type="line"/>
			<point x="292.005859375" y="754" type="line"/>
			<point x="290.005859375" y="1353.99609375" type="line"/>
			<point x="82.0078125" y="1387.99609375" type="line"/>
			<point x="82.0078125" y="1500" type="line"/>
			<point x="667.9276123047" y="1500" type="line"/>
			<point x="667.9276123047" y="1387.99609375" type="line"/>
			<point x="469.9295654297" y="1353.99609375" type="line"/>
			<point x="467.9295654297" y="754" type="line"/>
			<point x="469.9295654297" y="135.00390625" type="line"/>
			<point x="667.9276123047" y="100.00390625" type="line"/>
			<point x="667.9276123047" y="0" type="line"/>
		</contour>
		<contour>
			<point x="367.9295654297" y="716.9741210938" type="line"/>
			<point x="367.9295654297" y="848.9697265625" type="line"/>
			<point x="880.4739379883" y="840.9697265625" type="line"/>
			<point x="1383.3720092773" y="848.9697265625" type="line"/>
			<point x="1383.3720092773" y="716.9741210938" type="line"/>
			<point x="880.4739379883" y="716.9741210938" type="line"/>
		</contour>
		<contour>
			<point x="1071.3739624023" y="0" type="line"/>
			<point x="1071.3739624023" y="100.00390625" type="line"/>
			<point x="1269.3720092773" y="135.00390625" type="line"/>
			<point x="1271.3720092773" y="754" type="line"/>
			<point x="1269.3720092773" y="1353.99609375" type="line"/>
			<point x="1071.3739624023" y="1387.99609375" type="line"/>
			<point x="1071.3739624023" y="1500" type="line"/>
			<point x="1657.293762207" y="1500" type="line"/>
			<point x="1657.293762207" y="1387.99609375" type="line"/>
			<point x="1449.295715332" y="1353.99609375" type="line"/>
			<point x="1447.295715332" y="754" type="line"/>
			<point x="1449.295715332" y="135.00390625" type="line"/>
			<point x="1657.293762207" y="100.00390625" type="line"/>
			<point x="1657.293762207" y="0" type="line"/>
		</contour>
	</outline>
	<anchor name="bottom" x="870" y="0"/>
	<anchor name="center" x="870" y="1079"/>
	<anchor name="top" x="870" y="1500"/>
	<anchor name="tonos" x="0" y="1500"/>
	<anchor name="cy_descender" x="1658" y="100"/>
</glyph>
<glyph name="R" format="2">
	<unicode hex="0052"/>
	<advance width="1382"/>
	<outline>
		<contour>
			<point x="82.4326171875" y="0" type="line"/>
			<point x="82.4326171875" y="99.00390625" type="line"/>
			<point x="290.4306640625" y="134.00390625" type="line"/>
			<point x="292.4306640625" y="715.5454101562" type="line"/>
			<point x="290.4306640625" y="1353.99609375" type="line"/>
			<point x="82.4326171875" y="1387.99609375" type="line"/>
			<point x="82.4326171875" y="1500" type="line"/>
			<point x="753.5962524414" y="1500" type="line" smooth="yes"/>
			<point x="942.2365112305" y="1500"/>
			<point x="1145.4193725586" y="1293.6285400391"/>
			<point x="1145.4193725586" y="1121.1296386719" type="qcurve" smooth="yes"/>
			<point x="1145.4193725586" y="950.2225341797"/>
			<point x="905.2021484375" y="724.9482421875"/>
			<point x="701.7778930664" y="724.9482421875" type="qcurve" smooth="yes"/>
			<point x="636.1887207031" y="724.9482421875"/>
			<point x="425.0573120117" y="730.9482421875"/>
			<point x="366.5164794922" y="735.9482421875" type="qcurve"/>
			<point x="366.5164794922" y="828.0993652344" type="line"/>
			<point x="658.5207519531" y="828.0993652344" type="line" smooth="yes"/>
			<point x="837.3480224609" y="828.0993652344"/>
			<point x="952.5729370117" y="1005.170715332"/>
			<point x="952.5729370117" y="1105.8056640625" type="qcurve" smooth="yes"/>
			<point x="952.5729370117" y="1206.5604858398"/>
			<point x="856.7241821289" y="1383.9547119141"/>
			<point x="704.8796386719" y="1383.9547119141" type="qcurve" smooth="yes"/>
			<point x="490.3543701172" y="1383.9547119141" type="line"/>
			<point x="470.3543701172" y="1365.9547119141" type="line"/>
			<point x="467.3543701172" y="736" type="line"/>
			<point x="469.3543701172" y="134.00390625" type="line"/>
			<point x="680.6600341797" y="100.00390625" type="line"/>
			<point x="680.6600341797" y="0" type="line"/>
		</contour>
		<contour>
			<point x="640.7347412109" y="740.2951660156" type="line"/>
			<point x="795.2695922852" y="837.1361083984" type="line"/>
			<point x="1132.8562011719" y="310.00390625" type="line" smooth="yes"/>
			<point x="1220.8964233398" y="176.9158325195"/>
			<point x="1353.9393310547" y="87.4466552734"/>
			<point x="1431.2096557617" y="100.00390625" type="qcurve"/>
			<point x="1431.2096557617" y="0" type="line"/>
			<point x="1167.344543457" y="0" type="line"/>
			<point x="1085.2907104492" y="75" type="line"/>
		</contour>
	</outline>
	<anchor name="bottom" x="803" y="0"/>
	<anchor name="top" x="630" y="1500"/>
</glyph>
<glyph name="T" format="2">
	<unicode hex="0054"/>
	<advance width="1311"/>
	<outline>
		<contour>
			<point x="51.4954833984" y="1065.3492431641" type="line"/>
			<point x="51.4954833984" y="1500" type="line"/>
			<point x="1262.4496459961" y="1500" type="line"/>
			<point x="1262.4496459961" y="1065.3492431641" type="line"/>
			<point x="1152.4465942383" y="1065.3492431641" type="line"/>
			<point x="1117.4465942383" y="1395.3564453125" type="line"/>
			<point x="766.2088012695" y="1395.3564453125" type="line"/>
			<point x="747.2088012695" y="1375.3564453125" type="line"/>
			<point x="745.2088012695" y="768.7408447266" type="line"/>
			<point x="747.2088012695" y="134.00390625" type="line"/>
			<point x="976.8029174805" y="99.00390625" type="line"/>
			<point x="976.8029174805" y="0" type="line"/>
			<point x="335.114074707" y="0" type="line"/>
			<point x="335.114074707" y="99.00390625" type="line"/>
			<point x="567.2850952148" y="134.00390625" type="line"/>
			<point x="569.2850952148" y="768.7408447266" type="line"/>
			<point x="567.2850952148" y="1375.3564453125" type="line"/>
			<point x="558.2850952148" y="1395.3564453125" type="line"/>
			<point x="196.4985351562" y="1395.3564453125" type="line"/>
			<point x="161.4985351562" y="1065.3492431641" type="line"/>
		</contour>
	</outline>
	<anchor name="bottom" x="644" y="0"/>
	<anchor name="center" x="644" y="750"/>
	<anchor name="top" x="644" y="1500"/>
	<anchor name="cy_descender" x="951" y="100"/>
</glyph>
<glyph name="X" format="2">
	<unicode hex="0058"/>
	<advance width="1268"/>
	<outline>
		<contour>
			<point x="-38.4599609375" y="0" type="line"/>
			<point x="-38.4599609375" y="101.00390625" type="line"/>
			<point x="141" y="136.00390625" type="line"/>
			<point x="576.6414794922" y="768.3575439453" type="line"/>
			<point x="196.0362548828" y="1353.99609375" type="line"/>
			<point x="30.4608154297" y="1387.99609375" type="line"/>
			<point x="30.4608154297" y="1500" type="line"/>
			<point x="528.7578125" y="1500" type="line"/>
			<point x="528.7578125" y="1387.99609375" type="line"/>
			<point x="380.8555908203" y="1352.99609375" type="line"/>
			<point x="574.9566650391" y="1047.4663085938" type="line"/>
			<point x="652.3541259766" y="926.2813720703" type="line"/>
			<point x="664.3541259766" y="926.2813720703" type="line"/>
			<point x="736.7005615234" y="1051.1080322266" type="line"/>
			<point x="918.9758300781" y="1357.99609375" type="line"/>
			<point x="780.9197998047" y="1387.99609375" type="line"/>
			<point x="780.9197998047" y="1500" type="line"/>
			<point x="1203.1539306641" y="1500" type="line"/>
			<point x="1203.1539306641" y="1387.99609375" type="line"/>
			<point x="1029.8094482422" y="1353.99609375" type="line"/>
			<point x="689.9798583984" y="816.0487060547" type="line"/>
			<point x="1129.7575683594" y="135.00390625" type="line"/>
			<point x="1303.2175292969" y="101.00390625" type="line"/>
			<point x="1303.2175292969" y="0" type="line"/>
			<point x="779.3450927734" y="0" type="line"/>
			<point x="779.3450927734" y="101.00390625" type="line"/>
			<point x="947.2473144531" y="135.00390625" type="line"/>
			<point x="671.6999511719" y="576.4777832031" type="line"/>
			<point x="607.6071777344" y="673.0454101562" type="line"/>
			<point x="595.6071777344" y="673.0454101562" type="line"/>
			<point x="529.4566650391" y="574.6004638672" type="line"/>
			<point x="254.8336181641" y="132.00390625" type="line"/>
			<point x="427.8896484375" y="101.00390625" type="line"/>
			<point x="427.8896484375" y="0" type="line"/>
		</contour>
	</outline>
	<anchor name="bottom" x="661" y="0"/>
	<anchor name="top" x="673" y="1500"/>
	<anchor name="cy_descender" x="1386" y="100"/>
	<anchor name="center" x="663" y="811"/>
</glyph>
<glyph name="Z" format="2">
	<unicode hex="005A"/>
	<advance width="1232"/>
	<outline>
		<contour>
			<point x="71.509765625" y="0" type="line"/>
			<point x="41.4471435547" y="90.8077392578" type="line"/>
			<point x="923.1795654297" y="1368.0324707031" type="line"/>
			<point x="911.1795654297" y="1384.0324707031" type="line"/>
			<point x="230.6608886719" y="1384.0324707031" type="line"/>
			<point x="193.5146484375" y="1098.7163085938" type="line"/>
			<point x="95.6578369141" y="1098.7163085938" type="line"/>
			<point x="95.6578369141" y="1500" type="line"/>
			<point x="1132.9525146484" y="1500" type="line"/>
			<point x="1132.9525146484" y="1405.8488769531" type="line"/>
			<point x="235.3873291016" y="122.1295166016" type="line"/>
			<point x="248.3873291016" y="106.1295166016" type="line"/>
			<point x="997.4526367188" y="106.1295166016" type="line"/>
			<point x="1086.2058105469" y="395.2263183594" type="line"/>
			<point x="1176.795715332" y="395.2263183594" type="line"/>
			<point x="1117.4556884766" y="0" type="line"/>
		</contour>
	</outline>
	<anchor name="bottom" x="583" y="0"/>
	<anchor name="top" x="583" y="1500"/>
	<anchor name="_liga" x="0" y="0"/>
</glyph>
<glyph name="f" format="2">
	<unicode hex="0066"/>
	<advance width="714"/>
	<outline>
		<contour>
			<point x="81.3538818359" y="0" type="line"/>
			<point x="81.3538818359" y="80.994140625" type="line"/>
			<point x="257.8431396484" y="115.994140625" type="line"/>
			<point x="257.8431396484" y="549.3492431641" type="line"/>
			<point x="257.8431396484" y="835.4174194336" type="line"/>
			<point x="88.5095214844" y="837.4174194336" type="line"/>
			<point x="88.5095214844" y="936.8756713867" type="line"/>
			<point x="258.8431396484" y="974.8756713867" type="line"/>
			<point x="254.8431396484" y="1267.0762939453" type="line" smooth="yes"/>
			<point x="251.8165283203" y="1372.5550537109"/>
			<point x="406.7575683594" y="1520"/>
			<point x="509.7634277344" y="1520" type="qcurve" smooth="yes"/>
			<point x="551.8115234375" y="1520"/>
			<point x="638.1461181641" y="1498.5920410156"/>
			<point x="673.7270507812" y="1488.7296142578" type="qcurve" smooth="yes"/>
			<point x="701.0041503906" y="1478.0419921875" type="line"/>
			<point x="669.55078125" y="1399.3712158203" type="line"/>
			<point x="654.1171875" y="1401.2873535156" type="line" smooth="yes"/>
			<point x="637.9743652344" y="1403.5268554688"/>
			<point x="576.2060546875" y="1418.2866210938"/>
			<point x="548.4135742188" y="1418.2866210938" type="qcurve" smooth="yes"/>
			<point x="487.1135253906" y="1418.2866210938"/>
			<point x="425.177734375" y="1344.6029052734"/>
			<point x="425.6741943359" y="1257.7330322266" type="qcurve" smooth="yes"/>
			<point x="426.2342529297" y="974.8756713867" type="line"/>
			<point x="658.1650390625" y="974.8756713867" type="line"/>
			<point x="658.1650390625" y="837.4174194336" type="line"/>
			<point x="425.2342529297" y="837.4174194336" type="line"/>
			<point x="425.2342529297" y="549.3492431641" type="line"/>
			<point x="427.2342529297" y="115.994140625" type="line"/>
			<point x="621.8590087891" y="80.994140625" type="line"/>
			<point x="621.8590087891" y="0" type="line"/>
		</contour>
	</outline>
	<anchor name="bottom" x="314" y="0"/>
	<anchor name="top" x="314" y="1536"/>
</glyph>
<glyph name="m" format="2">
	<unicode hex="006D"/>
	<advance width="1896"/>
	<outline>
		<contour>
			<point x="76.4455566406" y="0" type="line"/>
			<point x="76.4455566406" y="80.994140625" type="line"/>
			<point x="224.4479980469" y="115.994140625" type="line"/>
			<point x="226.4479980469" y="552" type="line"/>
			<point x="224.4479980469" y="856.7382202148" type="line"/>
			<point x="76.4455566406" y="886.7382202148" type="line"/>
			<point x="76.4455566406" y="971.7323608398" type="line"/>
			<point x="320.3641357422" y="1005.7323608398" type="line"/>
			<point x="355.3641357422" y="978.7323608398" type="line"/>
			<point x="390.3641357422" y="875.7323608398" type="line"/>
			<point x="440.6527099609" y="934.7323608398"/>
			<point x="630.8741455078" y="1021.7323608398"/>
			<point x="733.1477050781" y="1021.7323608398" type="qcurve" smooth="yes"/>
			<point x="856.5384521484" y="1021.7323608398"/>
			<point x="999.2498779297" y="945.7323608398"/>
			<point x="1026.1005859375" y="877.7523803711" type="qcurve"/>
			<point x="1083.4562988281" y="942.7323608398"/>
			<point x="1274.7698974609" y="1020.7323608398"/>
			<point x="1380.6005859375" y="1020.7323608398" type="qcurve" smooth="yes"/>
			<point x="1534.9562988281" y="1020.7323608398"/>
			<point x="1691.8941650391" y="886.7323608398"/>
			<point x="1691.8941650391" y="764.7323608398" type="qcurve" smooth="yes"/>
			<point x="1691.8941650391" y="712.7813720703"/>
			<point x="1689.2313842773" y="558.1683349609"/>
			<point x="1688.9663085938" y="587" type="qcurve" smooth="yes"/>
			<point x="1691.9663085938" y="115.994140625" type="line"/>
			<point x="1842.96875" y="80.994140625" type="line"/>
			<point x="1842.96875" y="0" type="line"/>
			<point x="1398.1650390625" y="0" type="line"/>
			<point x="1398.1650390625" y="70.994140625" type="line"/>
			<point x="1519.4108886719" y="105.994140625" type="line"/>
			<point x="1519.4108886719" y="591" type="line"/>
			<point x="1522.2716064453" y="741.7476806641" type="line" smooth="yes"/>
			<point x="1523.4158935547" y="818.7476806641"/>
			<point x="1416.3508300781" y="888.7476806641"/>
			<point x="1327.2957763672" y="888.7476806641" type="qcurve" smooth="yes"/>
			<point x="1231.3128662109" y="888.7476806641"/>
			<point x="1090.9091796875" y="817.8519287109"/>
			<point x="1046.7398681641" y="750.1254882812" type="qcurve"/>
			<point x="1041.4512939453" y="726.1760253906"/>
			<point x="1041.9512939453" y="634.2889404297"/>
			<point x="1041.8791503906" y="587" type="qcurve" smooth="yes"/>
			<point x="1043.8791503906" y="105.994140625" type="line"/>
			<point x="1168.8815917969" y="70.994140625" type="line"/>
			<point x="1168.8815917969" y="0" type="line"/>
			<point x="740.93359375" y="0" type="line"/>
			<point x="740.93359375" y="70.994140625" type="line"/>
			<point x="872.1794433594" y="105.994140625" type="line"/>
			<point x="872.1794433594" y="585" type="line"/>
			<point x="872.1794433594" y="741.7476806641" type="line" smooth="yes"/>
			<point x="872.1794433594" y="818.7476806641"/>
			<point x="764.5422363281" y="888.7476806641"/>
			<point x="678.9200439453" y="888.7476806641" type="qcurve" smooth="yes"/>
			<point x="584.7257080078" y="888.7476806641"/>
			<point x="436.9613037109" y="808.1304931641"/>
			<point x="394.3641357422" y="733.9711914062" type="qcurve"/>
			<point x="394.3641357422" y="545" type="line"/>
			<point x="394.3641357422" y="105.994140625" type="line"/>
			<point x="508.1231689453" y="70.994140625" type="line"/>
			<point x="508.1231689453" y="0" type="line"/>
		</contour>
	</outline>
	<anchor name="bottom" x="958" y="0"/>
	<anchor name="top" x="958" y="1000"/>
</glyph>
<glyph name="u" format="2">
	<unicode hex="0075"/>
	<advance width="1239"/>
	<outline>
		<contour>
			<point x="57.52734375" y="886.4731445312" type="line"/>
			<point x="57.52734375" y="971.4672851562" type="line"/>
			<point x="310.3016357422" y="1005.4672851562" type="line"/>
			<point x="354.3016357422" y="1005.4672851562" type="line"/>
			<point x="372.3016357422" y="969.4672851562" type="line"/>
			<point x="369.3016357422" y="471.4924316406" type="line"/>
			<point x="371.3016357422" y="265.3401489258" type="line" smooth="yes"/>
			<point x="372.3016357422" y="188.5044555664"/>
			<point x="487.8095703125" y="112.4844360352"/>
			<point x="571.1431884766" y="112.4844360352" type="qcurve" smooth="yes"/>
			<point x="652.7603759766" y="112.4844360352"/>
			<point x="795.1190185547" y="166.3799438477"/>
			<point x="847.8704833984" y="223.9189453125" type="qcurve"/>
			<point x="847.8704833984" y="471.4924316406" type="line"/>
			<point x="845.8704833984" y="866.4731445312" type="line"/>
			<point x="714.1114501953" y="896.4731445312" type="line"/>
			<point x="714.1114501953" y="971.4672851562" type="line"/>
			<point x="956.7144775391" y="1005.4672851562" type="line"/>
			<point x="1000.7144775391" y="1005.4672851562" type="line"/>
			<point x="1018.7144775391" y="969.4672851562" type="line"/>
			<point x="1015.7144775391" y="471.4924316406" type="line"/>
			<point x="1017.7144775391" y="131.2351074219" type="line"/>
			<point x="1165.7169189453" y="101.2351074219" type="line"/>
			<point x="1165.7169189453" y="21" type="line"/>
			<point x="920.8704833984" y="-13" type="line"/>
			<point x="885.8704833984" y="14" type="line"/>
			<point x="850.5819091797" y="118" type="line"/>
			<point x="786.2883300781" y="59"/>
			<point x="622.0247802734" y="-19"/>
			<point x="502.3955078125" y="-19" type="qcurve" smooth="yes"/>
			<point x="371.8955078125" y="-19"/>
			<point x="198.5297851562" y="127.7264404297"/>
			<point x="198.5297851562" y="232" type="qcurve" smooth="yes"/>
			<point x="198.5297851562" y="294"/>
			<point x="202.5297851562" y="491.4924316406"/>
			<point x="202.5297851562" y="471.4924316406" type="qcurve" smooth="yes"/>
			<point x="199.5297851562" y="856.4731445312" type="line"/>
		</contour>
	</outline>
	<anchor name="bottom" x="622" y="0"/>
	<anchor name="ogonek" x="1030" y="20"/>
	<anchor name="top" x="622" y="1000"/>
	<anchor name="topright" x="1005" y="1000"/>
	<anchor name="cy_descender" x="1178" y="80"/>
</glyph>
